<?xml version="1.0" encoding="utf-8"?>
<svg version="1.1" xmlns:xlink="http://www.w3.org/1999/xlink" width="54px" height="52px" xmlns="http://www.w3.org/2000/svg">
  <g transform="matrix(1 0 0 1 -47 -30 )">
    <path d="M 74 30  C 89.12 30  101 41.44  101 56  C 101 70.56  89.12 82  74 82  C 58.88 82  47 70.56  47 56  C 47 41.44  58.88 30  74 30  Z " fill-rule="nonzero" fill="#ffffff" stroke="none" />
    <path d="M 74 30.5  C 88.84 30.5  100.5 41.72  100.5 56  C 100.5 70.28  88.84 81.5  74 81.5  C 59.16 81.5  47.5 70.28  47.5 56  C 47.5 41.72  59.16 30.5  74 30.5  Z " stroke-width="1" stroke="#797979" fill="none" />
  </g>
</svg>