<?xml version="1.0" encoding="utf-8"?>
<svg version="1.1" xmlns:xlink="http://www.w3.org/1999/xlink" width="54px" height="52px" xmlns="http://www.w3.org/2000/svg">
  <g transform="matrix(1 0 0 1 -13 0 )">
    <path d="M 40 0  C 55.12 0  67 11.44  67 26  C 67 40.56  55.12 52  40 52  C 24.88 52  13 40.56  13 26  C 13 11.44  24.88 0  40 0  Z " fill-rule="nonzero" fill="#ffffff" stroke="none" />
    <path d="M 40 0.5  C 54.84 0.5  66.5 11.72  66.5 26  C 66.5 40.28  54.84 51.5  40 51.5  C 25.16 51.5  13.5 40.28  13.5 26  C 13.5 11.72  25.16 0.5  40 0.5  Z " stroke-width="1" stroke="#797979" fill="none" />
  </g>
</svg>