<?xml version="1.0" encoding="utf-8"?>
<svg version="1.1" xmlns:xlink="http://www.w3.org/1999/xlink" width="12px" height="12px" viewBox="200 438.5  12 12" xmlns="http://www.w3.org/2000/svg">
  <path d="M 206 438.5  C 209.36 438.5  212 441.14  212 444.5  C 212 447.86  209.36 450.5  206 450.5  C 202.64 450.5  200 447.86  200 444.5  C 200 441.14  202.64 438.5  206 438.5  Z " fill-rule="nonzero" fill="#ffffff" stroke="none" />
  <path d="M 206 439  C 209.08 439  211.5 441.42  211.5 444.5  C 211.5 447.58  209.08 450  206 450  C 202.92 450  200.5 447.58  200.5 444.5  C 200.5 441.42  202.92 439  206 439  Z " stroke-width="1" stroke="#797979" fill="none" />
  <path d="M 206 447.5  C 204.32 447.5  203 446.18  203 444.5  C 203 442.82  204.32 441.5  206 441.5  C 207.68 441.5  209 442.82  209 444.5  C 209 446.18  207.68 447.5  206 447.5  " fill-rule="nonzero" fill="#797979" stroke="none" />
</svg>