<?xml version="1.0" encoding="utf-8"?>
<svg version="1.1" xmlns:xlink="http://www.w3.org/1999/xlink" width="12px" height="12px" viewBox="276 438.5  12 12" xmlns="http://www.w3.org/2000/svg">
  <path d="M 282 438.5  C 285.36 438.5  288 441.14  288 444.5  C 288 447.86  285.36 450.5  282 450.5  C 278.64 450.5  276 447.86  276 444.5  C 276 441.14  278.64 438.5  282 438.5  Z " fill-rule="nonzero" fill="#ffffff" stroke="none" />
  <path d="M 282 439  C 285.08 439  287.5 441.42  287.5 444.5  C 287.5 447.58  285.08 450  282 450  C 278.92 450  276.5 447.58  276.5 444.5  C 276.5 441.42  278.92 439  282 439  Z " stroke-width="1" stroke="#797979" fill="none" />
  <path d="M 282 447.5  C 280.32 447.5  279 446.18  279 444.5  C 279 442.82  280.32 441.5  282 441.5  C 283.68 441.5  285 442.82  285 444.5  C 285 446.18  283.68 447.5  282 447.5  " fill-rule="nonzero" fill="#797979" stroke="none" />
</svg>